<mxfile host="app.diagrams.net" modified="2023-06-20T16:49:44.071Z" agent="Mozilla/5.0 (X11; Linux x86_64) AppleWebKit/537.36 (KHTML, like Gecko) Chrome/113.0.0.0 Safari/537.36" version="21.5.0" etag="zhpG4tzc5K7kjZreFqOX" type="github">
  <diagram name="Page-1" id="Ws7a35TsiE3-W6Q6fdSX">
    <mxGraphModel>
      <root>
        <mxCell id="0" />
        <mxCell id="1" parent="0" />
      </root>
    </mxGraphModel>
  </diagram>
</mxfile>
